<svg width="16" height="20" viewBox="0 0 16 20" fill="none" xmlns="http://www.w3.org/2000/svg">
<path d="M15.919 16.4929L15.0258 5.23836C14.9702 4.51328 14.357 3.94527 13.6298 3.94527H11.8656V3.86598C11.8656 1.73426 10.1313 0 7.99962 0C5.8679 0 4.13364 1.73426 4.13364 3.86598V3.94527H2.3695C1.64228 3.94527 1.02904 4.51324 0.973566 5.23684L0.0801288 16.4944C0.0109882 17.3958 0.323683 18.2932 0.93798 18.9564C1.55228 19.6196 2.4231 20 3.32712 20H12.6721C13.5761 20 14.4469 19.6196 15.0613 18.9564C15.6756 18.2931 15.9882 17.3958 15.919 16.4929ZM5.30513 3.86598C5.30513 2.38023 6.51392 1.17148 7.99962 1.17148C9.48532 1.17148 10.6941 2.38027 10.6941 3.86598V3.94527H5.30513V3.86598ZM14.2018 18.1604C13.8026 18.5912 13.2594 18.8285 12.6721 18.8285H3.32716C2.73982 18.8285 2.19661 18.5912 1.79747 18.1604C1.39837 17.7295 1.20329 17.1696 1.24814 16.5855L2.1415 5.32793C2.15056 5.20949 2.25071 5.11676 2.3695 5.11676H4.13364V6.55953C4.13364 6.88301 4.39591 7.14527 4.71939 7.14527C5.04286 7.14527 5.30513 6.88301 5.30513 6.55953V5.11676H10.6941V6.55953C10.6941 6.88301 10.9564 7.14527 11.2799 7.14527C11.6033 7.14527 11.8656 6.88301 11.8656 6.55953V5.11676H13.6298C13.7485 5.11676 13.8487 5.20953 13.8579 5.32949L14.7511 16.584C14.796 17.1696 14.6009 17.7294 14.2018 18.1604Z" fill="white"/>
</svg>
